# Blender v2.82 (sub 7) OBJ File: 'Island3.blend'
# www.blender.org
mtllib Island3.mtl
o Cube
v 1.741918 0.905547 -1.899686
v 0.876634 -0.751484 -0.917744
v 1.869568 0.840473 2.108944
v 0.888207 -0.553773 0.843047
v -1.691882 0.889747 -1.730799
v -0.826001 -0.835495 -0.914522
v -1.996509 0.765529 1.456660
v -0.820672 -0.828746 0.895328
v -0.914365 -0.972477 -0.008402
v 0.008691 -0.858189 -1.002664
v 1.788940 0.005419 -1.693448
v -1.849988 0.000000 1.516645
v 1.903596 0.000000 1.769839
v -1.717961 0.009726 -1.439300
v 0.178745 1.000000 2.616273
v 2.755295 0.958152 -0.071914
v -0.021927 -0.742037 0.994332
v -2.115471 0.895459 -0.269116
v -0.380163 0.990233 -2.305850
v 0.832059 -0.874425 0.035036
v -0.266032 -0.000000 -1.908320
v 2.589371 0.015473 0.414410
v 0.052338 -0.998025 0.129245
v -2.118405 0.000000 0.038618
v -0.021501 -0.000000 2.359687
v 0.000000 1.000329 -0.001949
v -0.944005 -0.867746 0.422276
v -0.444815 -0.859042 -0.988595
v 1.306278 -0.500000 -1.332678
v -2.121812 0.509768 1.968624
v 1.347674 -0.480497 1.173215
v -1.044843 -0.500000 -1.413677
v -1.275369 0.827177 1.969180
v 2.542604 0.970173 1.361633
v 0.497321 -0.681122 0.990492
v -1.757070 0.868946 -1.045863
v 0.570955 0.990396 -2.263397
v 0.928688 -0.825153 -0.493213
v -0.932577 -0.891550 -0.543358
v 0.467122 -0.839748 -0.987543
v 1.751914 0.500637 -1.947181
v -1.234076 -0.455239 1.161853
v 1.959291 0.500000 2.128084
v -1.483839 0.500000 -1.692797
v 0.823961 0.992154 2.509044
v 2.429155 0.904140 -0.906957
v -0.556607 -0.919904 0.865255
v -2.068705 0.849084 0.675095
v -1.203043 0.964118 -2.158634
v 0.906918 -0.713661 0.445947
v 0.524906 0.027611 -2.216962
v -1.062726 0.004246 -1.830505
v 0.089964 -0.500000 -1.600773
v 0.014912 0.500000 -2.269038
v 2.258891 -0.000000 0.971038
v 2.061726 0.000000 -0.968192
v 1.619105 -0.500000 -0.101303
v 2.956111 0.500000 0.349109
v -0.083824 -0.991075 0.569130
v -0.091292 -0.999816 -0.416391
v -0.402655 -0.992239 0.063026
v 0.459784 -0.958641 -0.037347
v -1.967731 0.000000 -0.477679
v -2.193213 0.000000 0.554714
v -1.665987 -0.500000 -0.141797
v -2.286241 0.500000 -0.025705
v -0.827768 0.000000 2.027802
v 1.011509 -0.000000 2.310994
v 0.020458 -0.443021 1.671812
v -1.098526 0.501365 2.569637
v -0.581038 1.000080 1.398223
v 0.222117 1.037058 -1.478793
v 1.852166 1.000000 -0.117688
v -1.288717 1.059656 -0.431555
v -0.887753 1.067133 -1.225319
v 1.288616 1.029784 -1.262213
v 1.440986 1.049923 0.912897
v 0.771928 0.500000 2.506305
v 0.698730 -0.464821 1.604274
v -0.576687 -0.485263 1.687876
v -2.288622 0.500000 0.842299
v -1.711610 -0.500000 0.476007
v -1.515390 -0.500000 -0.969608
v 0.404958 -0.994696 -0.427869
v -0.471266 -0.951337 -0.503819
v -0.529377 -0.945115 0.474162
v 2.706575 0.500000 -0.321346
v 1.664655 -0.500000 -0.696438
v 1.552439 -0.455033 0.410155
v -0.820454 0.502762 -2.176705
v -0.400659 -0.500000 -1.582469
v 0.584129 -0.500000 -1.629406
v 0.596711 0.498555 -2.283017
v 2.532843 0.500000 1.148854
v 0.519062 -0.902202 0.545482
v -1.979045 0.500000 -0.873347
v -1.644650 0.500000 2.315632
v -1.307593 0.988304 0.798991
v 2.169294 0.981117 1.800984
v 0.502082 0.982772 2.555658
v -0.090365 1.035837 1.981730
v 2.347472 1.001791 -0.090088
v 2.694050 0.972503 0.649781
v 1.404384 1.000000 2.410412
v -0.291644 0.996317 0.699372
v 0.926083 1.004631 -0.058844
v 1.150876 1.043266 1.694779
v 1.630866 1.028268 0.394750
v 2.029625 1.034773 1.122359
v 0.448290 1.000000 1.130237
v 0.687187 0.998745 0.535696
v 2.186540 1.019546 0.512641
v 1.717005 1.045932 1.766386
v 0.482182 1.008214 1.848118
v 0.478587 1.015747 -0.639166
v 2.765089 0.925832 -0.492731
v 1.214499 1.033186 -0.687952
v 0.770083 1.099600 -1.365580
v 2.538503 1.000000 -0.281149
v 1.297734 1.041126 -0.571901
v 2.028225 1.036773 -0.660694
v 2.349177 1.000000 -0.446433
v 1.180177 1.031785 -0.854225
v 0.030024 1.039227 -0.542326
v -0.435990 1.018215 -0.427667
v -0.793973 1.107745 -0.723458
v -0.268348 1.128622 -0.850843
v 0.425056 1.050095 -0.939741
vt 0.812500 0.687500
vt 0.875000 0.687500
vt 0.875000 0.750000
vt 0.812500 0.750000
vt 0.562500 0.937500
vt 0.625000 0.937500
vt 0.625000 1.000000
vt 0.562500 1.000000
vt 0.562500 0.187500
vt 0.625000 0.187500
vt 0.625000 0.250000
vt 0.562500 0.250000
vt 0.312500 0.687500
vt 0.375000 0.687500
vt 0.375000 0.750000
vt 0.312500 0.750000
vt 0.562500 0.687500
vt 0.625000 0.687500
vt 0.625000 0.718750
vt 0.625000 0.750000
vt 0.562500 0.750000
vt 0.562500 0.437500
vt 0.625000 0.437500
vt 0.625000 0.500000
vt 0.562500 0.500000
vt 0.437500 0.437500
vt 0.500000 0.437500
vt 0.500000 0.500000
vt 0.437500 0.500000
vt 0.437500 0.312500
vt 0.500000 0.312500
vt 0.500000 0.375000
vt 0.437500 0.375000
vt 0.562500 0.312500
vt 0.625000 0.312500
vt 0.625000 0.375000
vt 0.562500 0.375000
vt 0.437500 0.687500
vt 0.500000 0.687500
vt 0.500000 0.750000
vt 0.437500 0.750000
vt 0.437500 0.562500
vt 0.500000 0.562500
vt 0.500000 0.625000
vt 0.437500 0.625000
vt 0.562500 0.562500
vt 0.625000 0.562500
vt 0.625000 0.593750
vt 0.625000 0.625000
vt 0.562500 0.625000
vt 0.187500 0.687500
vt 0.250000 0.687500
vt 0.250000 0.750000
vt 0.187500 0.750000
vt 0.187500 0.562500
vt 0.250000 0.562500
vt 0.250000 0.625000
vt 0.187500 0.625000
vt 0.312500 0.562500
vt 0.375000 0.562500
vt 0.375000 0.625000
vt 0.312500 0.625000
vt 0.437500 0.187500
vt 0.500000 0.187500
vt 0.500000 0.250000
vt 0.437500 0.250000
vt 0.437500 0.062500
vt 0.500000 0.062500
vt 0.500000 0.125000
vt 0.437500 0.125000
vt 0.562500 0.062500
vt 0.625000 0.062500
vt 0.625000 0.125000
vt 0.562500 0.125000
vt 0.437500 0.937500
vt 0.500000 0.937500
vt 0.500000 1.000000
vt 0.437500 1.000000
vt 0.437500 0.812500
vt 0.500000 0.812500
vt 0.500000 0.875000
vt 0.437500 0.875000
vt 0.562500 0.812500
vt 0.625000 0.812500
vt 0.625000 0.843750
vt 0.625000 0.875000
vt 0.562500 0.875000
vt 0.718750 0.718750
vt 0.750000 0.718750
vt 0.750000 0.750000
vt 0.718750 0.750000
vt 0.687500 0.562500
vt 0.718750 0.562500
vt 0.750000 0.562500
vt 0.750000 0.578125
vt 0.750000 0.593750
vt 0.750000 0.609375
vt 0.750000 0.625000
vt 0.718750 0.625000
vt 0.687500 0.625000
vt 0.687500 0.609375
vt 0.687500 0.593750
vt 0.687500 0.578125
vt 0.812500 0.562500
vt 0.875000 0.562500
vt 0.875000 0.625000
vt 0.812500 0.625000
vt 0.812500 0.593750
vt 0.781250 0.562500
vt 0.781250 0.625000
vt 0.750000 0.500000
vt 0.812500 0.500000
vt 0.875000 0.500000
vt 0.656250 0.562500
vt 0.671875 0.625000
vt 0.656250 0.625000
vt 0.640625 0.625000
vt 0.687500 0.500000
vt 0.656250 0.718750
vt 0.687500 0.718750
vt 0.687500 0.750000
vt 0.656250 0.750000
vt 0.656250 0.656250
vt 0.687500 0.656250
vt 0.687500 0.687500
vt 0.656250 0.687500
vt 0.718750 0.656250
vt 0.750000 0.656250
vt 0.750000 0.687500
vt 0.718750 0.687500
vt 0.625000 0.781250
vt 0.375000 0.812500
vt 0.375000 0.875000
vt 0.375000 0.937500
vt 0.375000 1.000000
vt 0.500000 0.000000
vt 0.562500 0.000000
vt 0.625000 0.000000
vt 0.375000 0.062500
vt 0.375000 0.125000
vt 0.375000 0.000000
vt 0.437500 0.000000
vt 0.375000 0.187500
vt 0.375000 0.250000
vt 0.250000 0.500000
vt 0.312500 0.500000
vt 0.375000 0.500000
vt 0.125000 0.562500
vt 0.125000 0.625000
vt 0.125000 0.500000
vt 0.187500 0.500000
vt 0.125000 0.687500
vt 0.125000 0.750000
vt 0.375000 0.312500
vt 0.375000 0.375000
vt 0.375000 0.437500
vt 0.625000 0.656250
vn -0.1886 0.9731 0.1321
vn -0.3224 0.8590 0.3976
vn -0.9338 -0.0797 -0.3489
vn 0.4493 -0.8057 0.3861
vn 0.8063 -0.0709 0.5872
vn 0.2897 0.0829 -0.9535
vn 0.2625 -0.7087 -0.6548
vn -0.0648 -0.5325 -0.8439
vn -0.1398 -0.1336 -0.9811
vn 0.4881 -0.8578 0.1610
vn 0.6064 -0.7825 -0.1417
vn 0.9321 -0.1043 -0.3468
vn 0.0553 -0.9472 0.3159
vn -0.0605 -0.9979 -0.0235
vn 0.2725 -0.9622 -0.0014
vn -0.7010 -0.6135 -0.3635
vn -0.7386 -0.6696 -0.0784
vn -0.8772 0.4789 0.0337
vn -0.3596 -0.7458 0.5608
vn 0.0261 -0.8401 0.5418
vn 0.0659 -0.1359 0.9885
vn 0.0572 0.9978 0.0333
vn 0.0003 0.9985 0.0543
vn -0.2127 0.9708 -0.1112
vn 0.0424 0.9943 0.0980
vn -0.0125 0.9954 -0.0946
vn -0.2045 0.9787 -0.0181
vn 0.0670 0.9974 -0.0259
vn 0.1333 0.9826 -0.1294
vn 0.0190 0.9952 -0.0964
vn -0.0077 0.9980 0.0631
vn 0.0278 0.9993 -0.0241
vn -0.0022 1.0000 -0.0048
vn 0.0362 -0.3337 0.9420
vn 0.3712 -0.3965 0.8396
vn 0.3169 -0.0887 0.9443
vn 0.0520 -0.9309 0.3617
vn 0.1937 -0.9677 0.1613
vn 0.2696 -0.8560 0.4411
vn -0.3554 -0.8128 0.4616
vn 0.1300 -0.8915 0.4341
vn -0.1226 -0.7537 0.6457
vn -0.9685 -0.2429 -0.0540
vn -0.8583 -0.4673 0.2118
vn -0.7964 0.5923 0.1227
vn -0.4854 -0.8727 0.0523
vn -0.4496 -0.8434 0.2941
vn -0.5568 -0.7752 0.2984
vn -0.3904 -0.8574 -0.3354
vn -0.5108 -0.8538 -0.1003
vn -0.7860 -0.5927 -0.1762
vn 0.0548 -0.9981 0.0287
vn 0.0248 -0.9687 -0.2472
vn 0.2610 -0.9409 -0.2159
vn -0.0692 -0.9921 -0.1042
vn -0.1043 -0.9771 -0.1856
vn -0.0366 -0.9754 -0.2174
vn -0.2428 -0.9650 0.0987
vn -0.1233 -0.9804 0.1539
vn -0.0650 -0.9969 0.0433
vn 0.7473 -0.6034 -0.2783
vn 0.8342 -0.3371 -0.4364
vn 0.8460 -0.0523 -0.5305
vn 0.4198 -0.9075 0.0133
vn 0.3481 -0.9162 -0.1983
vn 0.6217 -0.7271 -0.2911
vn 0.2452 -0.9565 0.1581
vn 0.4159 -0.8884 0.1945
vn 0.4062 -0.8967 0.1758
vn -0.0893 -0.5439 -0.8344
vn -0.5382 -0.2321 -0.8102
vn -0.5520 -0.4002 -0.7315
vn -0.0169 -0.8559 -0.5168
vn -0.1413 -0.8456 -0.5147
vn -0.3154 -0.6112 -0.7259
vn 0.1988 -0.8955 -0.3982
vn 0.0099 -0.8721 -0.4893
vn -0.1710 -0.6855 -0.7077
vn 0.3161 -0.3083 -0.8972
vn -0.2102 -0.3284 -0.9209
vn 0.0186 -0.0095 -0.9998
vn 0.7798 -0.4754 0.4074
vn 0.7436 -0.5304 0.4072
vn 0.9444 0.1924 0.2666
vn 0.1282 -0.8750 0.4668
vn 0.1389 -0.9877 0.0717
vn 0.3385 -0.9278 0.1571
vn -0.9215 -0.0455 -0.3857
vn -0.9039 -0.3015 -0.3034
vn -0.8927 0.2573 -0.3700
vn -0.3256 -0.7616 0.5603
vn -0.2531 -0.7699 0.5859
vn -0.3045 0.7967 0.5220
vn -0.1578 0.9802 0.1195
vn 0.0147 0.9996 0.0258
vn -0.1861 0.9810 0.0555
vn -0.0482 0.9981 -0.0391
vn -0.0162 0.9995 -0.0269
vn -0.0028 1.0000 0.0065
vn 0.1035 0.9945 0.0144
vn 0.1001 0.9950 0.0042
vn 0.0084 0.9995 -0.0300
vn 0.3221 0.8683 0.3773
vn 0.1176 0.9916 0.0542
vn 0.0105 0.9999 0.0013
vn -0.0361 0.9984 0.0429
vn -0.0533 0.9985 -0.0101
vn 0.0080 0.9993 -0.0370
usemtl Material
s off
f 98/1/1 48/2/1 7/3/1 33/4/1
f 97/5/2 33/6/2 7/7/2 30/8/2
f 96/9/3 36/10/3 5/11/3 44/12/3
f 95/13/4 50/14/4 4/15/4 35/16/4
f 94/17/5 34/18/5 99/19/5 3/20/5 43/21/5
f 93/22/6 37/23/6 1/24/6 41/25/6
f 92/26/7 51/27/7 11/28/7 29/29/7
f 91/30/8 52/31/8 21/32/8 53/33/8
f 90/34/9 49/35/9 19/36/9 54/37/9
f 89/38/10 55/39/10 13/40/10 31/41/10
f 88/42/11 56/43/11 22/44/11 57/45/11
f 87/46/12 46/47/12 116/48/12 16/49/12 58/50/12
f 86/51/13 59/52/13 17/53/13 47/54/13
f 85/55/14 60/56/14 23/57/14 61/58/14
f 84/59/15 38/60/15 20/61/15 62/62/15
f 83/63/16 63/64/16 14/65/16 32/66/16
f 82/67/17 64/68/17 24/69/17 65/70/17
f 81/71/18 48/72/18 18/73/18 66/74/18
f 80/75/19 67/76/19 12/77/19 42/78/19
f 79/79/20 68/80/20 25/81/20 69/82/20
f 78/83/21 45/84/21 100/85/21 15/86/21 70/87/21
f 114/88/22 101/89/22 15/90/22 100/91/22
f 76/92/23 118/93/23 72/94/23 128/95/23 115/96/23 124/97/23 26/98/23 106/99/23 73/100/23 120/101/23 117/102/23 123/103/23
f 75/104/24 36/105/24 18/106/24 74/107/24 126/108/24
f 72/94/25 127/109/25 75/104/25 126/108/25 74/107/25 125/110/25 26/98/25 124/97/25 115/96/25 128/95/25
f 19/111/26 49/112/26 75/104/26 127/109/26 72/94/26
f 49/112/27 5/113/27 36/105/27 75/104/27
f 46/47/28 121/114/28 76/92/28 123/103/28 117/102/28 120/101/28 73/100/28 122/115/28 102/116/28 119/117/28 16/49/28 116/48/28
f 1/24/29 37/118/29 76/92/29 121/114/29 46/47/29
f 37/118/30 19/111/30 72/94/30 118/93/30 76/92/30
f 113/119/31 107/120/31 45/121/31 104/122/31
f 112/123/32 108/124/32 77/125/32 109/126/32
f 111/127/33 105/128/33 71/129/33 110/130/33
f 68/80/34 78/83/34 70/87/34 25/81/34
f 13/40/35 43/21/35 78/83/35 68/80/35
f 43/21/36 3/20/36 104/131/36 45/84/36 78/83/36
f 35/132/37 79/79/37 69/82/37 17/133/37
f 4/15/38 31/41/38 79/79/38 35/132/38
f 31/41/39 13/40/39 68/80/39 79/79/39
f 47/134/40 80/75/40 42/78/40 8/135/40
f 17/133/41 69/82/41 80/75/41 47/134/41
f 69/82/42 25/81/42 67/76/42 80/75/42
f 64/68/43 81/71/43 66/74/43 24/69/43
f 12/136/44 30/137/44 81/71/44 64/68/44
f 30/137/45 7/138/45 48/72/45 81/71/45
f 27/139/46 82/67/46 65/70/46 9/140/46
f 8/141/47 42/142/47 82/67/47 27/139/47
f 42/142/48 12/136/48 64/68/48 82/67/48
f 39/143/49 83/63/49 32/66/49 6/144/49
f 9/140/50 65/70/50 83/63/50 39/143/50
f 65/70/51 24/69/51 63/64/51 83/63/51
f 60/56/52 84/59/52 62/62/52 23/57/52
f 10/145/53 40/146/53 84/59/53 60/56/53
f 40/146/54 2/147/54 38/60/54 84/59/54
f 39/148/55 85/55/55 61/58/55 9/149/55
f 6/150/56 28/151/56 85/55/56 39/148/56
f 28/151/57 10/145/57 60/56/57 85/55/57
f 27/152/58 86/51/58 47/54/58 8/153/58
f 9/149/59 61/58/59 86/51/59 27/152/59
f 61/58/60 23/57/60 59/52/60 86/51/60
f 56/43/61 87/46/61 58/50/61 22/44/61
f 11/28/62 41/25/62 87/46/62 56/43/62
f 41/25/63 1/24/63 46/47/63 87/46/63
f 38/60/64 88/42/64 57/45/64 20/61/64
f 2/147/65 29/29/65 88/42/65 38/60/65
f 29/29/66 11/28/66 56/43/66 88/42/66
f 50/14/67 89/38/67 31/41/67 4/15/67
f 20/61/68 57/45/68 89/38/68 50/14/68
f 57/45/69 22/44/69 55/39/69 89/38/69
f 52/31/70 90/34/70 54/37/70 21/32/70
f 14/65/71 44/12/71 90/34/71 52/31/71
f 44/12/72 5/11/72 49/35/72 90/34/72
f 28/154/73 91/30/73 53/33/73 10/155/73
f 6/144/74 32/66/74 91/30/74 28/154/74
f 32/66/75 14/65/75 52/31/75 91/30/75
f 40/156/76 92/26/76 29/29/76 2/147/76
f 10/155/77 53/33/77 92/26/77 40/156/77
f 53/33/78 21/32/78 51/27/78 92/26/78
f 51/27/79 93/22/79 41/25/79 11/28/79
f 21/32/80 54/37/80 93/22/80 51/27/80
f 54/37/81 19/36/81 37/23/81 93/22/81
f 55/39/82 94/17/82 43/21/82 13/40/82
f 22/44/83 58/50/83 94/17/83 55/39/83
f 58/50/84 16/49/84 103/157/84 34/18/84 94/17/84
f 59/52/85 95/13/85 35/16/85 17/53/85
f 23/57/86 62/62/86 95/13/86 59/52/86
f 62/62/87 20/61/87 50/14/87 95/13/87
f 63/64/88 96/9/88 44/12/88 14/65/88
f 24/69/89 66/74/89 96/9/89 63/64/89
f 66/74/90 18/73/90 36/10/90 96/9/90
f 67/76/91 97/5/91 30/8/91 12/77/91
f 25/81/92 70/87/92 97/5/92 67/76/92
f 70/87/93 15/86/93 33/6/93 97/5/93
f 71/129/94 98/1/94 33/4/94 15/90/94 101/89/94
f 26/98/95 125/110/95 74/107/95 98/1/95 71/129/95 105/128/95
f 74/107/96 18/106/96 48/2/96 98/1/96
f 108/124/97 111/127/97 110/130/97 77/125/97
f 73/100/98 106/99/98 111/127/98 108/124/98
f 106/99/99 26/98/99 105/128/99 111/127/99
f 103/157/100 112/123/100 109/126/100 34/18/100
f 16/49/101 119/117/101 102/116/101 112/123/101 103/157/101
f 102/116/102 122/115/102 73/100/102 108/124/102 112/123/102
f 99/19/103 113/119/103 104/122/103 3/20/103
f 34/18/104 109/126/104 113/119/104 99/19/104
f 109/126/105 77/125/105 107/120/105 113/119/105
f 107/120/106 114/88/106 100/91/106 45/121/106
f 77/125/107 110/130/107 114/88/107 107/120/107
f 110/130/108 71/129/108 101/89/108 114/88/108
